<svg width="46" height="46" viewBox="0 0 46 46" fill="none" xmlns="http://www.w3.org/2000/svg">
<path d="M16.8503 37.033C29.8682 37.033 36.9896 26.2474 36.9896 16.8936C36.9896 16.5874 36.9896 16.2827 36.9681 15.9794C38.3541 14.9773 39.5501 13.736 40.5 12.3137C39.2085 12.8874 37.8381 13.2634 36.4348 13.4292C37.9122 12.5444 39.0177 11.1528 39.5455 9.51349C38.156 10.337 36.6364 10.9179 35.0519 11.2313C33.9846 10.0965 32.5731 9.34499 31.0357 9.09318C29.4983 8.84137 27.9208 9.10326 26.5472 9.83832C25.1737 10.5734 24.0807 11.7406 23.4374 13.1595C22.794 14.5783 22.6362 16.1696 22.9884 17.6871C20.1743 17.5461 17.4214 16.8149 14.9083 15.541C12.3951 14.2671 10.1779 12.4789 8.40063 10.2926C7.4964 11.8511 7.21977 13.6955 7.627 15.4508C8.03422 17.206 9.09472 18.7402 10.5928 19.7413C9.46634 19.7069 8.36456 19.4028 7.38 18.8544V18.9449C7.38045 20.5791 7.94608 22.1628 8.98099 23.4275C10.0159 24.6922 11.4564 25.56 13.0581 25.8837C12.0163 26.1685 10.9229 26.2098 9.86256 26.0045C10.3148 27.411 11.1953 28.6409 12.3809 29.5224C13.5665 30.4039 14.9979 30.8928 16.4751 30.9207C15.0074 32.0739 13.3268 32.9264 11.5294 33.4296C9.73202 33.9328 7.85307 34.0767 6 33.8532C9.2366 35.9309 13.0027 37.0333 16.8488 37.0287" fill="#03B8FF"/>
</svg>
