<svg width="46" height="46" viewBox="0 0 46 46" fill="none" xmlns="http://www.w3.org/2000/svg">
<rect width="46" height="46" rx="23" fill="#241731"/>
<path d="M38.3381 5.75H7.66187C7.15598 5.75376 6.67187 5.9564 6.31413 6.31413C5.9564 6.67187 5.75376 7.15598 5.75 7.66187V38.3381C5.75376 38.844 5.9564 39.3281 6.31413 39.6859C6.67187 40.0436 7.15598 40.2462 7.66187 40.25H24.1787V26.91H19.6937V21.6919H24.1787V17.8538C24.1787 13.3975 26.8956 10.9681 30.8919 10.9681C32.2288 10.9681 33.5656 10.9681 34.9025 11.1694V15.8125H32.1569C29.9863 15.8125 29.5694 16.8475 29.5694 18.3569V21.6775H34.7444L34.0688 26.8956H29.5694V40.25H38.3381C38.844 40.2462 39.3281 40.0436 39.6859 39.6859C40.0436 39.3281 40.2462 38.844 40.25 38.3381V7.66187C40.2462 7.15598 40.0436 6.67187 39.6859 6.31413C39.3281 5.9564 38.844 5.75376 38.3381 5.75Z" fill="#0D72F6"/>
</svg>
