<svg width="46" height="46" viewBox="0 0 46 46" fill="none" xmlns="http://www.w3.org/2000/svg">
<path d="M37.6625 5.75H8.3375C6.9 5.75 5.75 6.9 5.75 8.19375V37.6625C5.75 38.9562 6.9 40.1063 8.3375 40.1063H37.6625C39.1 40.1063 40.25 38.9562 40.25 37.6625V8.19375C40.25 6.9 39.1 5.75 37.6625 5.75ZM15.9563 32.5594C15.9563 33.9487 14.83 35.075 13.4406 35.075C12.0513 35.075 10.925 33.9487 10.925 32.5594V21.2031C10.925 19.8138 12.0513 18.6875 13.4406 18.6875C14.83 18.6875 15.9563 19.8138 15.9563 21.2031V32.5594ZM13.5125 16.3875C11.9312 16.3875 10.4938 15.0938 10.4938 13.3688C10.4938 11.6438 11.7875 10.35 13.5125 10.35C15.0937 10.35 16.5312 11.6438 16.5312 13.3688C16.5312 15.0938 15.0937 16.3875 13.5125 16.3875ZM35.2188 34.9312C32.4401 34.9312 30.1875 32.6787 30.1875 29.9V26.8813C30.1875 25.0125 30.1875 22.425 27.4563 22.425C24.725 22.425 24.4375 24.5812 24.4375 26.5938V32.2719C24.4375 33.6612 23.3112 34.7875 21.9219 34.7875C20.5325 34.7875 19.4062 33.6612 19.4062 32.2719V21.0594C19.4062 19.7494 20.4682 18.6875 21.7781 18.6875H23.0719C23.6673 18.6875 24.15 19.1702 24.15 19.7656V20.7533C24.15 20.8032 24.1905 20.8438 24.2405 20.8438C24.2734 20.8438 24.3034 20.8263 24.3197 20.7977C25.0535 19.5162 26.7664 18.1125 29.1812 18.1125C34.3562 18.1125 35.3625 21.5625 35.3625 26.0188V34.7875C35.3625 34.8669 35.2981 34.9312 35.2188 34.9312Z" fill="#0D6DEB"/>
</svg>
