<svg width="46" height="46" viewBox="0 0 46 46" fill="none" xmlns="http://www.w3.org/2000/svg">
<g clip-path="url(#clip0_7_12)">
<rect width="46" height="46" rx="23" fill="#FEFEFE"/>
<path fill-rule="evenodd" clip-rule="evenodd" d="M22.9588 0.000140844C17.5075 0.000894224 12.2342 1.99329 8.08231 5.62093C3.93042 9.24856 1.17074 14.2748 0.296949 19.8005C-0.576847 25.3262 0.492237 30.9909 3.31296 35.7813C6.13369 40.5717 10.522 44.1753 15.693 45.9474C16.8411 46.1664 17.3331 45.4421 17.3331 44.819V40.8104C10.953 42.2252 9.60813 37.6439 9.60813 37.6439C9.16082 36.1995 8.2162 34.9719 6.95111 34.1911C4.86815 32.7426 7.11513 32.7595 7.11513 32.7595C7.8427 32.865 8.53716 33.1399 9.14546 33.5632C9.75377 33.9865 10.2598 34.5469 10.625 35.2017C11.2603 36.3718 12.3221 37.235 13.577 37.6013C14.8318 37.9677 16.177 37.8073 17.3167 37.1555C17.4093 35.9604 17.9224 34.8408 18.7601 34.0059C13.6757 33.3995 8.31242 31.3784 8.31242 22.3506C8.27524 20.0059 9.12138 17.7371 10.6742 16.0177C9.97135 13.9868 10.0535 11.7564 10.9038 9.78583C10.9038 9.78583 12.8228 9.14581 17.2183 12.1944C20.9767 11.1416 24.9409 11.1416 28.6992 12.1944C33.0784 9.14581 34.9974 9.78583 34.9974 9.78583C35.8477 11.7564 35.9298 13.9868 35.227 16.0177C36.7798 17.7371 37.6259 20.0059 37.5888 22.3506C37.5888 31.4121 32.2255 33.3995 27.1083 33.989C27.6565 34.5596 28.0792 35.2442 28.348 35.9967C28.6167 36.7492 28.7253 37.5521 28.6664 38.3513V44.819C28.6664 45.5937 29.0765 46.1832 30.3066 45.9474C35.4843 44.1731 39.8772 40.5625 42.6975 35.7633C45.5178 30.9641 46.581 25.2901 45.6964 19.7588C44.8119 14.2275 42.0374 9.20068 37.8706 5.57979C33.7038 1.9589 28.4172 -0.0192242 22.9588 0.000140844Z" fill="#1A1A1A"/>
</g>
<defs>
<clipPath id="clip0_7_12">
<rect width="46" height="46" rx="23" fill="white"/>
</clipPath>
</defs>
</svg>
