<svg width="64" height="64" viewBox="0 0 64 64" fill="none" xmlns="http://www.w3.org/2000/svg">
<path d="M50 23.2L48.2 22.6C48.2 22.2 48.4 21.8 48.4 21.4C49.8 14.8 48.8 9.4 45.8 7.6C42.8 6 38 7.6 33.2 11.8C32.8 12.2 32.2 12.6 31.8 13C31.4 12.8 31.2 12.4 30.8 12.2C26 7.8 21 6 18 7.8C15 9.4 14.2 14.6 15.4 20.8C15.6 21.4 15.6 22 15.8 22.6C15 22.8 14.4 23 13.8 23.2C7.8 25.2 4 28.6 4 31.8C4 35.2 8 38.8 14.2 40.8C14.6 41 15.2 41.2 15.8 41.2C15.6 41.8 15.4 42.6 15.4 43.2C14.2 49.4 15.2 54.2 18 56C21 57.8 26 56 31 51.6C31.4 51.2 31.8 50.8 32.2 50.6C32.6 51 33.2 51.6 33.8 52C38.6 56.2 43.2 57.8 46.2 56C49.2 54.2 50.2 49 49 42.6C49 42.2 48.8 41.6 48.6 41C49 40.8 49.4 40.8 49.6 40.6C56 38.4 60.2 35 60.2 31.6C60 28.6 56 25.4 50 23.2ZM35 13.8C39.2 10.2 43 8.8 44.8 9.8C46.6 10.8 47.4 15.2 46.2 21C46.2 21.4 46 21.8 46 22.2C43.6 21.6 41 21.2 38.6 21C37.2 19 35.6 17 33.8 15L35 13.8ZM20.6 34.8C21.2 35.8 21.6 36.8 22.2 37.8C22.8 38.8 23.4 39.8 24 40.6C22.2 40.4 20.6 40.2 18.8 39.8C19.2 38.2 19.8 36.6 20.6 34.8ZM20.6 29.2C19.8 27.6 19.4 26 18.8 24.4C20.4 24 22.2 23.8 23.8 23.6C23.2 24.6 22.6 25.4 22 26.4C21.6 27.2 21 28.2 20.6 29.2ZM21.8 32C22.6 30.4 23.4 29 24.2 27.4C25 26 26 24.4 27 23C28.6 22.8 30.4 22.8 32.2 22.8C34 22.8 35.6 22.8 37.4 23C38.4 24.4 39.2 25.8 40 27.4C40.8 28.8 41.6 30.4 42.4 32C41.6 33.6 40.8 35 40 36.6C39.2 38 38.2 39.6 37.4 41C35.8 41.2 34 41.2 32.2 41.2C30.4 41.2 28.8 41.2 27.2 41C26.2 39.6 25.4 38.2 24.4 36.6C23.4 35 22.6 33.6 21.8 32ZM41.8 37.8C42.4 36.8 43 35.8 43.4 34.8C44.2 36.4 44.8 38 45.2 39.8C43.4 40.2 41.8 40.4 40 40.6C40.8 39.6 41.4 38.6 41.8 37.8ZM43.4 29.2C42.8 28.2 42.4 27.2 41.8 26.2C41.2 25.2 40.6 24.4 40.2 23.4C42 23.6 43.6 24 45.4 24.2C44.8 26 44.2 27.6 43.4 29.2ZM32 16.6C33.2 17.8 34.2 19.2 35.2 20.6C33 20.4 30.8 20.4 28.6 20.6C29.8 19.2 31 17.8 32 16.6ZM19.2 9.8C21 8.8 25.2 10.2 29.6 14.2L30.4 15C28.6 16.8 27 18.8 25.6 21C23 21.2 20.6 21.6 18.2 22.2C18 21.6 18 21 17.8 20.4C16.6 15 17.4 10.8 19.2 9.8ZM16.4 39.2C16 39 15.4 39 15 38.8C12.2 37.8 10 36.6 8.4 35.4C7 34.2 6.4 33 6.4 32C6.4 30 9.4 27.4 14.6 25.6C15.2 25.4 15.8 25.2 16.6 25C17.2 27.4 18 29.8 19.2 32C18 34.4 17.2 36.8 16.4 39.2ZM29.4 50.2C27.2 52.2 25 53.4 23.2 54.2C21.4 54.8 20.2 54.8 19.2 54.4C17.4 53.4 16.6 49.4 17.6 44.2C17.8 43.4 18 42.8 18 42C20.4 42.6 23 43 25.6 43C27 45 28.6 47 30.4 49C30 49.4 29.8 49.8 29.4 50.2ZM32 47.4C30.8 46.2 29.8 44.8 28.6 43.4H35.2C34.4 44.8 33.2 46.2 32 47.4ZM46.6 50.8C46.2 52.6 45.6 53.8 44.8 54.2C43 55.2 39.2 53.8 35.2 50.4C34.8 50 34.2 49.6 33.8 49.2C35.4 47.4 37 45.4 38.4 43.2C41 43 43.4 42.6 46 42C46.2 42.4 46.2 43 46.4 43.4C47 46.2 47 48.8 46.6 50.8ZM48.6 38.8C48.2 38.8 48 39 47.6 39C46.8 36.6 45.8 34.2 44.8 31.8C45.8 29.6 46.8 27.2 47.6 24.8C48.2 25 48.8 25.2 49.2 25.4C54.4 27.2 57.6 29.8 57.6 31.8C57.6 34.2 54.2 37 48.6 38.8Z" fill="#07F3FF"/>
<path d="M32.2 37.0828C33.2 37.0828 34.2 36.8828 35 36.2828C35.8 35.6828 36.4 34.8828 36.8 34.0828C37.2 33.0828 37.2 32.0828 37 31.0828C36.8 30.0828 36.4 29.2828 35.6 28.4828C35 27.6828 34 27.2828 33 27.0828C32 26.8828 31 27.0828 30 27.2828C29 27.6828 28.2 28.2828 27.8 29.0828C27.2 29.8828 27 30.8828 27 31.8828C27 32.4828 27.2 33.2828 27.4 33.8828C27.6 34.4828 28 35.0828 28.4 35.4828C28.8 35.8828 29.4 36.2828 30 36.4828C30.8 36.8828 31.6 37.0828 32.2 37.0828Z" fill="#07F3FF"/>
</svg>
