<svg width="60" height="54" viewBox="0 0 60 54" fill="none" xmlns="http://www.w3.org/2000/svg">
<path d="M11.25 37.125L13.9012 34.7389L7.1775 28.6875H22.5V25.3125H7.1775L13.9012 19.2611L11.25 16.875L0 27L11.25 37.125Z" fill="#0AFFBE"/>
<path d="M29.9996 16.875C28.5218 16.873 27.0582 17.1339 25.6929 17.6428C24.3276 18.1516 23.0875 18.8983 22.0439 19.8399L29.9996 27L22.0439 34.1601C23.3522 35.3373 24.9628 36.206 26.7332 36.6892C28.5035 37.1724 30.3789 37.2553 32.1934 36.9304C34.0078 36.6055 35.7052 35.883 37.1352 34.8267C38.5653 33.7704 39.6838 32.4131 40.3918 30.8748C41.0998 29.3366 41.3753 27.665 41.1941 26.008C41.0128 24.3511 40.3804 22.7599 39.3527 21.3754C38.325 19.991 36.9338 18.856 35.3024 18.071C33.6709 17.286 31.8495 16.8752 29.9996 16.875Z" fill="#0AFFBE"/>
<path d="M30.0004 3.375C26.5534 3.37331 23.14 3.98439 19.9561 5.17315C16.7723 6.36192 13.8806 8.10495 11.4473 10.3022L14.0985 12.6883C17.2443 9.85426 21.2534 7.9236 25.6186 7.1406C29.9838 6.35759 34.5089 6.75742 38.6216 8.28949C42.7342 9.82156 46.2496 12.417 48.7229 15.7476C51.1963 19.0781 52.5164 22.9941 52.5164 27C52.5164 31.0059 51.1963 34.9219 48.7229 38.2524C46.2496 41.583 42.7342 44.1784 38.6216 45.7105C34.5089 47.2426 29.9838 47.6424 25.6186 46.8594C21.2534 46.0764 17.2443 44.1457 14.0985 41.3117L11.4473 43.6978C14.4993 46.4443 18.2569 48.471 22.3871 49.5983C26.5173 50.7256 30.8927 50.9188 35.1257 50.1607C39.3587 49.4026 43.3186 47.7166 46.6547 45.2521C49.9907 42.7876 52.6 39.6207 54.2513 36.0318C55.9025 32.443 56.5449 28.543 56.1214 24.6774C55.6979 20.8117 54.2217 17.0998 51.8235 13.8703C49.4252 10.6407 46.1791 7.9934 42.3725 6.16271C38.5659 4.33203 34.3164 3.37452 30.0004 3.375Z" fill="#0AFFBE"/>
</svg>
