<svg width="57" height="57" viewBox="0 0 57 57" fill="none" xmlns="http://www.w3.org/2000/svg">
<path d="M53.6716 42.3516L42.0116 30.6716V22.0116C42.0131 21.7484 41.9627 21.4875 41.8631 21.2438C41.7636 21.0001 41.617 20.7785 41.4316 20.5916L21.4316 0.591597C21.2457 0.40414 21.0245 0.255351 20.7808 0.153814C20.537 0.0522765 20.2756 0 20.0116 0C19.7476 0 19.4862 0.0522765 19.2424 0.153814C18.9987 0.255351 18.7775 0.40414 18.5916 0.591597L0.591597 18.5916C0.40414 18.7775 0.255351 18.9987 0.153814 19.2424C0.0522765 19.4862 0 19.7476 0 20.0116C0 20.2756 0.0522765 20.537 0.153814 20.7808C0.255351 21.0245 0.40414 21.2457 0.591597 21.4316L20.5916 41.4316C20.7785 41.617 21.0001 41.7636 21.2438 41.8631C21.4875 41.9627 21.7484 42.0131 22.0116 42.0116H30.6916L42.3516 53.6916C43.8527 55.1927 45.8887 56.036 48.0116 56.036C50.1345 56.036 52.1705 55.1927 53.6716 53.6916C55.1727 52.1905 56.016 50.1545 56.016 48.0316C56.016 45.9087 55.1727 43.8727 53.6716 42.3716V42.3516ZM8.0116 16.8316L12.5916 21.4316L15.4316 18.5916L10.8316 14.0116L14.0116 10.8316L22.5916 19.4316L25.4316 16.5916L16.8316 8.0116L20.0116 4.8316L33.1916 18.0116L18.0116 33.1916L4.8316 20.0116L8.0116 16.8316ZM50.8316 50.8316C50.0821 51.5766 49.0683 51.9948 48.0116 51.9948C46.9549 51.9948 45.941 51.5766 45.1916 50.8316L32.9316 38.5916C32.5054 38.2985 32.0211 38.1007 31.5116 38.0116H22.8316L20.8316 36.0116L36.0116 20.8316L38.0116 22.8316V31.5116C38.0138 32.0363 38.2221 32.5391 38.5916 32.9116L50.8316 45.1916C51.5766 45.941 51.9948 46.9549 51.9948 48.0116C51.9948 49.0683 51.5766 50.0821 50.8316 50.8316Z" fill="#07F3FF"/>
</svg>
