<svg width="64" height="64" viewBox="0 0 64 64" fill="none" xmlns="http://www.w3.org/2000/svg">
<rect width="64" height="64" fill="#29183E"/>
<path d="M42 46C44.2091 46 46 44.2091 46 42C46 39.7909 44.2091 38 42 38C39.7909 38 38 39.7909 38 42C38 44.2091 39.7909 46 42 46Z" fill="#0AFFBE"/>
<path d="M14 18C16.2091 18 18 16.2091 18 14C18 11.7909 16.2091 10 14 10C11.7909 10 10 11.7909 10 14C10 16.2091 11.7909 18 14 18Z" fill="#0AFFBE"/>
<path d="M54 62C52.4178 62 50.871 61.5308 49.5554 60.6518C48.2399 59.7727 47.2145 58.5233 46.609 57.0615C46.0035 55.5997 45.845 53.9911 46.1537 52.4393C46.4624 50.8874 47.2243 49.462 48.3432 48.3432C49.462 47.2243 50.8874 46.4624 52.4393 46.1537C53.9911 45.845 55.5997 46.0035 57.0615 46.609C58.5233 47.2145 59.7727 48.2399 60.6518 49.5554C61.5308 50.871 62 52.4178 62 54C61.9947 56.1201 61.1502 58.1519 59.651 59.651C58.1519 61.1502 56.1201 61.9947 54 62ZM54 50C53.2089 50 52.4355 50.2346 51.7777 50.6741C51.1199 51.1137 50.6072 51.7384 50.3045 52.4693C50.0017 53.2002 49.9225 54.0044 50.0769 54.7804C50.2312 55.5563 50.6122 56.269 51.1716 56.8284C51.731 57.3878 52.4437 57.7688 53.2196 57.9231C53.9956 58.0775 54.7998 57.9983 55.5307 57.6955C56.2616 57.3928 56.8864 56.8801 57.3259 56.2223C57.7654 55.5645 58 54.7911 58 54C57.9968 52.9401 57.5744 51.9245 56.8249 51.1751C56.0755 50.4256 55.0599 50.0032 54 50Z" fill="#07F3FF"/>
<path d="M60 32C59.9789 24.5804 57.0221 17.4708 51.7757 12.2243C46.5292 6.97789 39.4196 4.02112 32 4.00001C27.2225 3.93155 22.518 5.17686 18.4 7.60001L20.6 11C22.1627 10.2471 23.765 9.57945 25.4 9.00001C22.0917 15.523 20.2487 22.6902 20 30H8C8.22416 26.6977 9.18063 23.4867 10.8 20.6L7.8 18C5.31126 22.2459 3.99954 27.0785 4 32C4 39.4261 6.94999 46.548 12.201 51.799C17.452 57.05 24.5739 60 32 60C35.5652 60.0318 39.1009 59.3518 42.4 58L41.2 54.2C37.921 55.6023 34.3596 56.2187 30.8 56C26.5348 49.4402 24.1802 41.8224 24 34H59.8C59.9654 33.3469 60.0328 32.6729 60 32ZM25.6 55.2C21.6223 54.0094 17.9876 51.8834 15 49C11.031 44.94 8.56232 39.6498 8 34H20C20.2751 41.394 22.1877 48.6347 25.6 55.2ZM24 30C24.1595 22.2031 26.4413 14.5971 30.6 8.00001H33.4C37.5587 14.5971 39.8405 22.2031 40 30H24ZM44 30C43.8461 22.5885 41.9263 15.3207 38.4 8.80001C43.106 10.1559 47.2894 12.9088 50.3965 16.6944C53.5036 20.48 55.3879 25.1199 55.8 30H44Z" fill="#07F3FF"/>
</svg>
